<?xml version="1.0" encoding="UTF-8" standalone="no"?>
<!-- Created with Inkscape (http://www.inkscape.org/) -->

<svg
   width="256"
   height="256"
   viewBox="0 0 67.733332 67.733333"
   version="1.1"
   id="svg1"
   inkscape:version="1.3.2 (091e20e, 2023-11-25)"
   sodipodi:docname="spicy.svg"
   xmlns:inkscape="http://www.inkscape.org/namespaces/inkscape"
   xmlns:sodipodi="http://sodipodi.sourceforge.net/DTD/sodipodi-0.dtd"
   xmlns="http://www.w3.org/2000/svg"
   xmlns:svg="http://www.w3.org/2000/svg">
  <sodipodi:namedview
     id="namedview1"
     pagecolor="#ffffff"
     bordercolor="#000000"
     borderopacity="0.25"
     inkscape:showpageshadow="2"
     inkscape:pageopacity="0.0"
     inkscape:pagecheckerboard="true"
     inkscape:deskcolor="#d1d1d1"
     inkscape:document-units="mm"
     inkscape:zoom="1.7084979"
     inkscape:cx="129.06074"
     inkscape:cy="113.84269"
     inkscape:window-width="1440"
     inkscape:window-height="744"
     inkscape:window-x="0"
     inkscape:window-y="25"
     inkscape:window-maximized="1"
     inkscape:current-layer="layer1" />
  <defs
     id="defs1" />
  <g
     inkscape:label="Layer 1"
     inkscape:groupmode="layer"
     id="layer1">
    <path
       style="fill:#ce4832;stroke:#bd4545;stroke-width:9.11651;stroke-linecap:round;stroke-linejoin:round;stroke-opacity:0;fill-opacity:1"
       id="path1"
       sodipodi:type="arc"
       sodipodi:cx="36.881657"
       sodipodi:cy="-34.39444"
       sodipodi:rx="19.710411"
       sodipodi:ry="14.551188"
       sodipodi:start="4.0907534"
       sodipodi:end="3.8204996"
       sodipodi:arc-type="arc"
       d="m 25.402992,-46.223494 a 19.710411,14.551188 0 0 1 26.690285,2.575674 19.710411,14.551188 0 0 1 -1.67902,19.833005 19.710411,14.551188 0 0 1 -26.916993,0.10226 19.710411,14.551188 0 0 1 -1.955423,-19.819198"
       sodipodi:open="true"
       transform="rotate(90)" />
    <path
       style="fill:#ce4832;stroke:#bd4545;stroke-width:9.11651;stroke-linecap:round;stroke-linejoin:round;stroke-opacity:0;fill-opacity:1"
       id="path1-6"
       sodipodi:type="arc"
       sodipodi:cx="39.860691"
       sodipodi:cy="-44.480358"
       sodipodi:rx="19.710411"
       sodipodi:ry="14.551188"
       sodipodi:start="4.0907534"
       sodipodi:end="3.8204996"
       sodipodi:arc-type="arc"
       d="m 28.382027,-56.309413 a 19.710411,14.551188 0 0 1 26.690284,2.575674 19.710411,14.551188 0 0 1 -1.67902,19.833006 19.710411,14.551188 0 0 1 -26.916993,0.10226 19.710411,14.551188 0 0 1 -1.955423,-19.819198"
       sodipodi:open="true"
       transform="rotate(90)" />
    <path
       style="fill:#7ece32;fill-opacity:1;stroke:#bd4545;stroke-width:3.68604;stroke-linecap:round;stroke-linejoin:round;stroke-opacity:0"
       id="path1-6-1"
       sodipodi:type="arc"
       sodipodi:cx="15.329918"
       sodipodi:cy="-34.23299"
       sodipodi:rx="7.9694209"
       sodipodi:ry="5.8834157"
       sodipodi:start="4.0907534"
       sodipodi:end="3.8204996"
       sodipodi:arc-type="arc"
       d="m 10.688802,-39.015778 a 7.9694209,5.8834157 0 0 1 10.791561,1.041411 7.9694209,5.8834157 0 0 1 -0.67887,8.018988 7.9694209,5.8834157 0 0 1 -10.8832259,0.04135 7.9694209,5.8834157 0 0 1 -0.7906272,-8.013406"
       sodipodi:open="true"
       transform="rotate(90)" />
    <path
       style="fill:#ce4832;stroke:#bd4545;stroke-width:9.11651;stroke-linecap:round;stroke-linejoin:round;stroke-opacity:0;fill-opacity:1"
       id="path1-6-8"
       sodipodi:type="arc"
       sodipodi:cx="40.120834"
       sodipodi:cy="-24.543106"
       sodipodi:rx="19.710411"
       sodipodi:ry="14.551188"
       sodipodi:start="4.0907534"
       sodipodi:end="3.8204996"
       sodipodi:arc-type="arc"
       d="m 28.64217,-36.372161 a 19.710411,14.551188 0 0 1 26.690285,2.575674 19.710411,14.551188 0 0 1 -1.679021,19.833006 19.710411,14.551188 0 0 1 -26.916993,0.10226 19.710411,14.551188 0 0 1 -1.955422,-19.819198"
       sodipodi:open="true"
       transform="rotate(90)" />
    <path
       style="fill:#7ece32;fill-opacity:1;stroke:#bd4545;stroke-width:3.00907;stroke-linecap:round;stroke-linejoin:round;stroke-opacity:0"
       id="path1-6-1-8"
       sodipodi:type="arc"
       sodipodi:cx="34.476261"
       sodipodi:cy="21.006277"
       sodipodi:rx="8.3137131"
       sodipodi:ry="3.7584231"
       sodipodi:start="4.0907534"
       sodipodi:end="3.8204996"
       sodipodi:arc-type="arc"
       d="m 29.634641,17.950953 a 8.3137131,3.7584231 0 0 1 11.257775,0.665271 8.3137131,3.7584231 0 0 1 -0.708199,5.122662 8.3137131,3.7584231 0 0 1 -11.353399,0.02641 8.3137131,3.7584231 0 0 1 -0.824784,-5.119096"
       sodipodi:open="true"
       inkscape:label="path1-6-1-8" />
  </g>
</svg>
