<?xml version="1.0" encoding="UTF-8" standalone="no"?>
<!-- Created with Inkscape (http://www.inkscape.org/) -->

<svg
   width="256"
   height="256"
   viewBox="0 0 67.733332 67.733333"
   version="1.1"
   id="svg1"
   inkscape:version="1.3.2 (091e20e, 2023-11-25)"
   sodipodi:docname="yellow-noodle.svg"
   xmlns:inkscape="http://www.inkscape.org/namespaces/inkscape"
   xmlns:sodipodi="http://sodipodi.sourceforge.net/DTD/sodipodi-0.dtd"
   xmlns="http://www.w3.org/2000/svg"
   xmlns:svg="http://www.w3.org/2000/svg">
  <sodipodi:namedview
     id="namedview1"
     pagecolor="#ffffff"
     bordercolor="#000000"
     borderopacity="0.25"
     inkscape:showpageshadow="2"
     inkscape:pageopacity="0.0"
     inkscape:pagecheckerboard="0"
     inkscape:deskcolor="#d1d1d1"
     inkscape:document-units="mm"
     inkscape:zoom="1.6201435"
     inkscape:cx="105.54621"
     inkscape:cy="91.658547"
     inkscape:window-width="1440"
     inkscape:window-height="738"
     inkscape:window-x="0"
     inkscape:window-y="25"
     inkscape:window-maximized="1"
     inkscape:current-layer="layer2" />
  <defs
     id="defs1">
    <linearGradient
       id="swatch9"
       inkscape:swatch="solid">
      <stop
         style="stop-color:#000000;stop-opacity:1;"
         offset="0"
         id="stop9" />
    </linearGradient>
  </defs>
  <g
     inkscape:label="Layer 1"
     inkscape:groupmode="layer"
     id="layer1">
    <circle
       style="fill:#3a3937;fill-opacity:1;stroke:#3a3937;stroke-width:3.50132;stroke-linejoin:round;stroke-opacity:1"
       id="path7"
       cx="33.765343"
       cy="33.765343"
       r="32.014683" />
    <circle
       style="fill:#f8b52f;fill-opacity:1;stroke:#403f3c;stroke-width:8.76645;stroke-linejoin:round;stroke-opacity:1"
       id="path8"
       cx="33.866665"
       cy="33.866665"
       r="24.846096" />
  </g>
  <g
     inkscape:groupmode="layer"
     id="layer2"
     inkscape:label="Layer 2">
    <path
       sodipodi:type="spiral"
       style="fill:none;fill-rule:evenodd;stroke:#fdfe29;stroke-opacity:1"
       id="path15"
       sodipodi:cx="13.66355"
       sodipodi:cy="38.080822"
       sodipodi:expansion="1"
       sodipodi:revolution="3.8977971"
       sodipodi:radius="7.0949631"
       sodipodi:argument="-22.535967"
       sodipodi:t0="0"
       d="m 13.66355,38.080822 c -0.234153,0.141897 -0.306797,-0.245628 -0.235841,-0.389179 0.192285,-0.389015 0.735496,-0.325868 1.0142,-0.0825 0.498535,0.435321 0.377332,1.218416 -0.07083,1.639221 -0.6577,0.617549 -1.708519,0.432071 -2.264242,-0.22417 -0.740691,-0.874665 -0.48831,-2.201254 0.377507,-2.889263 1.089542,-0.865788 2.695266,-0.545345 3.514284,0.530845 0.991941,1.30341 0.602848,3.189999 -0.684182,4.139305 -1.516719,1.118724 -3.685182,0.660642 -4.764325,-0.837519 -1.2459141,-1.729686 -0.7186327,-4.180668 0.990856,-5.389347 1.942429,-1.373378 4.676363,-0.776759 6.014367,1.144193 1.501039,2.155019 0.834985,5.172214 -1.29753,6.639389 -2.367496,1.628843 -5.668179,0.893284 -7.2644099,-1.450868 -1.7567554,-2.579891 -0.9516401,-6.164234 1.6042049,-7.88943 2.792224,-1.884753 6.660359,-1.010041 8.514452,1.757542 2.012816,3.004508 1.068477,7.15654 -1.91088,9.139473 -1.814561,1.207694 -4.145511,1.472781 -6.194434,0.741058"
       transform="translate(4.4280025,0.12651436)" />
    <path
       sodipodi:type="spiral"
       style="fill:none;fill-rule:evenodd;stroke:#fdfe29;stroke-opacity:1"
       id="path15-0"
       sodipodi:cx="13.66355"
       sodipodi:cy="38.080822"
       sodipodi:expansion="1"
       sodipodi:revolution="3.8977971"
       sodipodi:radius="7.0949631"
       sodipodi:argument="-22.535967"
       sodipodi:t0="0"
       d="m 13.66355,38.080822 c -0.234153,0.141897 -0.306797,-0.245628 -0.235841,-0.389179 0.192285,-0.389015 0.735496,-0.325868 1.0142,-0.0825 0.498535,0.435321 0.377332,1.218416 -0.07083,1.639221 -0.6577,0.617549 -1.708519,0.432071 -2.264242,-0.22417 -0.740691,-0.874665 -0.48831,-2.201254 0.377507,-2.889263 1.089542,-0.865788 2.695266,-0.545345 3.514284,0.530845 0.991941,1.30341 0.602848,3.189999 -0.684182,4.139305 -1.516719,1.118724 -3.685182,0.660642 -4.764325,-0.837519 -1.2459141,-1.729686 -0.7186327,-4.180668 0.990856,-5.389347 1.942429,-1.373378 4.676363,-0.776759 6.014367,1.144193 1.501039,2.155019 0.834985,5.172214 -1.29753,6.639389 -2.367496,1.628843 -5.668179,0.893284 -7.2644099,-1.450868 -1.7567554,-2.579891 -0.9516401,-6.164234 1.6042049,-7.88943 2.792224,-1.884753 6.660359,-1.010041 8.514452,1.757542 2.012816,3.004508 1.068477,7.15654 -1.91088,9.139473 -1.814561,1.207694 -4.145511,1.472781 -6.194434,0.741058"
       transform="translate(11.13958,8.8359777)" />
    <path
       sodipodi:type="spiral"
       style="fill:none;fill-rule:evenodd;stroke:#fdfe29;stroke-opacity:1"
       id="path15-0-9"
       sodipodi:cx="13.66355"
       sodipodi:cy="38.080822"
       sodipodi:expansion="1"
       sodipodi:revolution="3.8977971"
       sodipodi:radius="7.0949631"
       sodipodi:argument="-22.535967"
       sodipodi:t0="0"
       d="m 13.66355,38.080822 c -0.234153,0.141897 -0.306797,-0.245628 -0.235841,-0.389179 0.192285,-0.389015 0.735496,-0.325868 1.0142,-0.0825 0.498535,0.435321 0.377332,1.218416 -0.07083,1.639221 -0.6577,0.617549 -1.708519,0.432071 -2.264242,-0.22417 -0.740691,-0.874665 -0.48831,-2.201254 0.377507,-2.889263 1.089542,-0.865788 2.695266,-0.545345 3.514284,0.530845 0.991941,1.30341 0.602848,3.189999 -0.684182,4.139305 -1.516719,1.118724 -3.685182,0.660642 -4.764325,-0.837519 -1.2459141,-1.729686 -0.7186327,-4.180668 0.990856,-5.389347 1.942429,-1.373378 4.676363,-0.776759 6.014367,1.144193 1.501039,2.155019 0.834985,5.172214 -1.29753,6.639389 -2.367496,1.628843 -5.668179,0.893284 -7.2644099,-1.450868 -1.7567554,-2.579891 -0.9516401,-6.164234 1.6042049,-7.88943 2.792224,-1.884753 6.660359,-1.010041 8.514452,1.757542 2.012816,3.004508 1.068477,7.15654 -1.91088,9.139473 -1.814561,1.207694 -4.145511,1.472781 -6.194434,0.741058"
       transform="translate(13.165568,-1.0413498)" />
    <path
       sodipodi:type="spiral"
       style="fill:none;fill-rule:evenodd;stroke:#fdfe29;stroke-opacity:1"
       id="path15-0-9-7"
       sodipodi:cx="13.66355"
       sodipodi:cy="38.080822"
       sodipodi:expansion="1"
       sodipodi:revolution="3.8977971"
       sodipodi:radius="7.0949631"
       sodipodi:argument="-22.535967"
       sodipodi:t0="0"
       d="m 13.66355,38.080822 c -0.234153,0.141897 -0.306797,-0.245628 -0.235841,-0.389179 0.192285,-0.389015 0.735496,-0.325868 1.0142,-0.0825 0.498535,0.435321 0.377332,1.218416 -0.07083,1.639221 -0.6577,0.617549 -1.708519,0.432071 -2.264242,-0.22417 -0.740691,-0.874665 -0.48831,-2.201254 0.377507,-2.889263 1.089542,-0.865788 2.695266,-0.545345 3.514284,0.530845 0.991941,1.30341 0.602848,3.189999 -0.684182,4.139305 -1.516719,1.118724 -3.685182,0.660642 -4.764325,-0.837519 -1.2459141,-1.729686 -0.7186327,-4.180668 0.990856,-5.389347 1.942429,-1.373378 4.676363,-0.776759 6.014367,1.144193 1.501039,2.155019 0.834985,5.172214 -1.29753,6.639389 -2.367496,1.628843 -5.668179,0.893284 -7.2644099,-1.450868 -1.7567554,-2.579891 -0.9516401,-6.164234 1.6042049,-7.88943 2.792224,-1.884753 6.660359,-1.010041 8.514452,1.757542 2.012816,3.004508 1.068477,7.15654 -1.91088,9.139473 -1.814561,1.207694 -4.145511,1.472781 -6.194434,0.741058"
       transform="translate(5.1720549,-8.8072903)" />
    <path
       sodipodi:type="spiral"
       style="fill:none;fill-rule:evenodd;stroke:#fdfe29;stroke-opacity:1"
       id="path15-0-9-7-8"
       sodipodi:cx="13.66355"
       sodipodi:cy="38.080822"
       sodipodi:expansion="1"
       sodipodi:revolution="3.8977971"
       sodipodi:radius="7.0949631"
       sodipodi:argument="-22.535967"
       sodipodi:t0="0"
       d="m 13.66355,38.080822 c -0.234153,0.141897 -0.306797,-0.245628 -0.235841,-0.389179 0.192285,-0.389015 0.735496,-0.325868 1.0142,-0.0825 0.498535,0.435321 0.377332,1.218416 -0.07083,1.639221 -0.6577,0.617549 -1.708519,0.432071 -2.264242,-0.22417 -0.740691,-0.874665 -0.48831,-2.201254 0.377507,-2.889263 1.089542,-0.865788 2.695266,-0.545345 3.514284,0.530845 0.991941,1.30341 0.602848,3.189999 -0.684182,4.139305 -1.516719,1.118724 -3.685182,0.660642 -4.764325,-0.837519 -1.2459141,-1.729686 -0.7186327,-4.180668 0.990856,-5.389347 1.942429,-1.373378 4.676363,-0.776759 6.014367,1.144193 1.501039,2.155019 0.834985,5.172214 -1.29753,6.639389 -2.367496,1.628843 -5.668179,0.893284 -7.2644099,-1.450868 -1.7567554,-2.579891 -0.9516401,-6.164234 1.6042049,-7.88943 2.792224,-1.884753 6.660359,-1.010041 8.514452,1.757542 2.012816,3.004508 1.068477,7.15654 -1.91088,9.139473 -1.814561,1.207694 -4.145511,1.472781 -6.194434,0.741058"
       transform="translate(8.9079528,-16.296506)" />
    <path
       sodipodi:type="spiral"
       style="fill:none;fill-rule:evenodd;stroke:#fdfe29;stroke-opacity:1"
       id="path15-0-9-7-5"
       sodipodi:cx="13.66355"
       sodipodi:cy="38.080822"
       sodipodi:expansion="1"
       sodipodi:revolution="3.8977971"
       sodipodi:radius="7.0949631"
       sodipodi:argument="-22.535967"
       sodipodi:t0="0"
       d="m 13.66355,38.080822 c -0.234153,0.141897 -0.306797,-0.245628 -0.235841,-0.389179 0.192285,-0.389015 0.735496,-0.325868 1.0142,-0.0825 0.498535,0.435321 0.377332,1.218416 -0.07083,1.639221 -0.6577,0.617549 -1.708519,0.432071 -2.264242,-0.22417 -0.740691,-0.874665 -0.48831,-2.201254 0.377507,-2.889263 1.089542,-0.865788 2.695266,-0.545345 3.514284,0.530845 0.991941,1.30341 0.602848,3.189999 -0.684182,4.139305 -1.516719,1.118724 -3.685182,0.660642 -4.764325,-0.837519 -1.2459141,-1.729686 -0.7186327,-4.180668 0.990856,-5.389347 1.942429,-1.373378 4.676363,-0.776759 6.014367,1.144193 1.501039,2.155019 0.834985,5.172214 -1.29753,6.639389 -2.367496,1.628843 -5.668179,0.893284 -7.2644099,-1.450868 -1.7567554,-2.579891 -0.9516401,-6.164234 1.6042049,-7.88943 2.792224,-1.884753 6.660359,-1.010041 8.514452,1.757542 2.012816,3.004508 1.068477,7.15654 -1.91088,9.139473 -1.814561,1.207694 -4.145511,1.472781 -6.194434,0.741058"
       transform="translate(14.901519,-10.144693)" />
    <path
       sodipodi:type="spiral"
       style="fill:none;fill-rule:evenodd;stroke:#fdfe29;stroke-opacity:1"
       id="path15-0-9-7-5-5"
       sodipodi:cx="13.66355"
       sodipodi:cy="38.080822"
       sodipodi:expansion="1"
       sodipodi:revolution="3.8977971"
       sodipodi:radius="7.0949631"
       sodipodi:argument="-22.535967"
       sodipodi:t0="0"
       d="m 13.66355,38.080822 c -0.234153,0.141897 -0.306797,-0.245628 -0.235841,-0.389179 0.192285,-0.389015 0.735496,-0.325868 1.0142,-0.0825 0.498535,0.435321 0.377332,1.218416 -0.07083,1.639221 -0.6577,0.617549 -1.708519,0.432071 -2.264242,-0.22417 -0.740691,-0.874665 -0.48831,-2.201254 0.377507,-2.889263 1.089542,-0.865788 2.695266,-0.545345 3.514284,0.530845 0.991941,1.30341 0.602848,3.189999 -0.684182,4.139305 -1.516719,1.118724 -3.685182,0.660642 -4.764325,-0.837519 -1.2459141,-1.729686 -0.7186327,-4.180668 0.990856,-5.389347 1.942429,-1.373378 4.676363,-0.776759 6.014367,1.144193 1.501039,2.155019 0.834985,5.172214 -1.29753,6.639389 -2.367496,1.628843 -5.668179,0.893284 -7.2644099,-1.450868 -1.7567554,-2.579891 -0.9516401,-6.164234 1.6042049,-7.88943 2.792224,-1.884753 6.660359,-1.010041 8.514452,1.757542 2.012816,3.004508 1.068477,7.15654 -1.91088,9.139473 -1.814561,1.207694 -4.145511,1.472781 -6.194434,0.741058"
       transform="translate(15.74266,-20.251942)" />
    <path
       sodipodi:type="spiral"
       style="fill:none;fill-rule:evenodd;stroke:#fdfe29;stroke-opacity:1"
       id="path15-0-9-7-5-9"
       sodipodi:cx="13.66355"
       sodipodi:cy="38.080822"
       sodipodi:expansion="1"
       sodipodi:revolution="3.8977971"
       sodipodi:radius="7.0949631"
       sodipodi:argument="-22.535967"
       sodipodi:t0="0"
       d="m 13.66355,38.080822 c -0.234153,0.141897 -0.306797,-0.245628 -0.235841,-0.389179 0.192285,-0.389015 0.735496,-0.325868 1.0142,-0.0825 0.498535,0.435321 0.377332,1.218416 -0.07083,1.639221 -0.6577,0.617549 -1.708519,0.432071 -2.264242,-0.22417 -0.740691,-0.874665 -0.48831,-2.201254 0.377507,-2.889263 1.089542,-0.865788 2.695266,-0.545345 3.514284,0.530845 0.991941,1.30341 0.602848,3.189999 -0.684182,4.139305 -1.516719,1.118724 -3.685182,0.660642 -4.764325,-0.837519 -1.2459141,-1.729686 -0.7186327,-4.180668 0.990856,-5.389347 1.942429,-1.373378 4.676363,-0.776759 6.014367,1.144193 1.501039,2.155019 0.834985,5.172214 -1.29753,6.639389 -2.367496,1.628843 -5.668179,0.893284 -7.2644099,-1.450868 -1.7567554,-2.579891 -0.9516401,-6.164234 1.6042049,-7.88943 2.792224,-1.884753 6.660359,-1.010041 8.514452,1.757542 2.012816,3.004508 1.068477,7.15654 -1.91088,9.139473 -1.814561,1.207694 -4.145511,1.472781 -6.194434,0.741058"
       transform="translate(23.056797,-22.16473)" />
    <path
       sodipodi:type="spiral"
       style="fill:none;fill-rule:evenodd;stroke:#fdfe29;stroke-opacity:1"
       id="path15-0-9-7-5-9-5"
       sodipodi:cx="13.66355"
       sodipodi:cy="38.080822"
       sodipodi:expansion="1"
       sodipodi:revolution="3.8977971"
       sodipodi:radius="7.0949631"
       sodipodi:argument="-22.535967"
       sodipodi:t0="0"
       d="m 13.66355,38.080822 c -0.234153,0.141897 -0.306797,-0.245628 -0.235841,-0.389179 0.192285,-0.389015 0.735496,-0.325868 1.0142,-0.0825 0.498535,0.435321 0.377332,1.218416 -0.07083,1.639221 -0.6577,0.617549 -1.708519,0.432071 -2.264242,-0.22417 -0.740691,-0.874665 -0.48831,-2.201254 0.377507,-2.889263 1.089542,-0.865788 2.695266,-0.545345 3.514284,0.530845 0.991941,1.30341 0.602848,3.189999 -0.684182,4.139305 -1.516719,1.118724 -3.685182,0.660642 -4.764325,-0.837519 -1.2459141,-1.729686 -0.7186327,-4.180668 0.990856,-5.389347 1.942429,-1.373378 4.676363,-0.776759 6.014367,1.144193 1.501039,2.155019 0.834985,5.172214 -1.29753,6.639389 -2.367496,1.628843 -5.668179,0.893284 -7.2644099,-1.450868 -1.7567554,-2.579891 -0.9516401,-6.164234 1.6042049,-7.88943 2.792224,-1.884753 6.660359,-1.010041 8.514452,1.757542 2.012816,3.004508 1.068477,7.15654 -1.91088,9.139473 -1.814561,1.207694 -4.145511,1.472781 -6.194434,0.741058"
       transform="translate(23.427131,-14.28559)" />
    <path
       sodipodi:type="spiral"
       style="fill:none;fill-rule:evenodd;stroke:#fdfe29;stroke-opacity:1"
       id="path15-0-9-7-5-9-5-8"
       sodipodi:cx="13.66355"
       sodipodi:cy="38.080822"
       sodipodi:expansion="1"
       sodipodi:revolution="3.8977971"
       sodipodi:radius="7.0949631"
       sodipodi:argument="-22.535967"
       sodipodi:t0="0"
       d="m 13.66355,38.080822 c -0.234153,0.141897 -0.306797,-0.245628 -0.235841,-0.389179 0.192285,-0.389015 0.735496,-0.325868 1.0142,-0.0825 0.498535,0.435321 0.377332,1.218416 -0.07083,1.639221 -0.6577,0.617549 -1.708519,0.432071 -2.264242,-0.22417 -0.740691,-0.874665 -0.48831,-2.201254 0.377507,-2.889263 1.089542,-0.865788 2.695266,-0.545345 3.514284,0.530845 0.991941,1.30341 0.602848,3.189999 -0.684182,4.139305 -1.516719,1.118724 -3.685182,0.660642 -4.764325,-0.837519 -1.2459141,-1.729686 -0.7186327,-4.180668 0.990856,-5.389347 1.942429,-1.373378 4.676363,-0.776759 6.014367,1.144193 1.501039,2.155019 0.834985,5.172214 -1.29753,6.639389 -2.367496,1.628843 -5.668179,0.893284 -7.2644099,-1.450868 -1.7567554,-2.579891 -0.9516401,-6.164234 1.6042049,-7.88943 2.792224,-1.884753 6.660359,-1.010041 8.514452,1.757542 2.012816,3.004508 1.068477,7.15654 -1.91088,9.139473 -1.814561,1.207694 -4.145511,1.472781 -6.194434,0.741058"
       transform="translate(30.361725,-17.182692)" />
    <path
       sodipodi:type="spiral"
       style="fill:none;fill-rule:evenodd;stroke:#fdfe29;stroke-opacity:1"
       id="path15-0-9-7-5-9-5-8-2"
       sodipodi:cx="13.66355"
       sodipodi:cy="38.080822"
       sodipodi:expansion="1"
       sodipodi:revolution="3.8977971"
       sodipodi:radius="7.0949631"
       sodipodi:argument="-22.535967"
       sodipodi:t0="0"
       d="m 13.66355,38.080822 c -0.234153,0.141897 -0.306797,-0.245628 -0.235841,-0.389179 0.192285,-0.389015 0.735496,-0.325868 1.0142,-0.0825 0.498535,0.435321 0.377332,1.218416 -0.07083,1.639221 -0.6577,0.617549 -1.708519,0.432071 -2.264242,-0.22417 -0.740691,-0.874665 -0.48831,-2.201254 0.377507,-2.889263 1.089542,-0.865788 2.695266,-0.545345 3.514284,0.530845 0.991941,1.30341 0.602848,3.189999 -0.684182,4.139305 -1.516719,1.118724 -3.685182,0.660642 -4.764325,-0.837519 -1.2459141,-1.729686 -0.7186327,-4.180668 0.990856,-5.389347 1.942429,-1.373378 4.676363,-0.776759 6.014367,1.144193 1.501039,2.155019 0.834985,5.172214 -1.29753,6.639389 -2.367496,1.628843 -5.668179,0.893284 -7.2644099,-1.450868 -1.7567554,-2.579891 -0.9516401,-6.164234 1.6042049,-7.88943 2.792224,-1.884753 6.660359,-1.010041 8.514452,1.757542 2.012816,3.004508 1.068477,7.15654 -1.91088,9.139473 -1.814561,1.207694 -4.145511,1.472781 -6.194434,0.741058"
       transform="translate(34.239797,-11.018152)" />
    <path
       sodipodi:type="spiral"
       style="fill:none;fill-rule:evenodd;stroke:#fdfe29;stroke-opacity:1"
       id="path15-0-9-7-5-9-5-8-2-8"
       sodipodi:cx="13.66355"
       sodipodi:cy="38.080822"
       sodipodi:expansion="1"
       sodipodi:revolution="3.8977971"
       sodipodi:radius="7.0949631"
       sodipodi:argument="-22.535967"
       sodipodi:t0="0"
       d="m 13.66355,38.080822 c -0.234153,0.141897 -0.306797,-0.245628 -0.235841,-0.389179 0.192285,-0.389015 0.735496,-0.325868 1.0142,-0.0825 0.498535,0.435321 0.377332,1.218416 -0.07083,1.639221 -0.6577,0.617549 -1.708519,0.432071 -2.264242,-0.22417 -0.740691,-0.874665 -0.48831,-2.201254 0.377507,-2.889263 1.089542,-0.865788 2.695266,-0.545345 3.514284,0.530845 0.991941,1.30341 0.602848,3.189999 -0.684182,4.139305 -1.516719,1.118724 -3.685182,0.660642 -4.764325,-0.837519 -1.2459141,-1.729686 -0.7186327,-4.180668 0.990856,-5.389347 1.942429,-1.373378 4.676363,-0.776759 6.014367,1.144193 1.501039,2.155019 0.834985,5.172214 -1.29753,6.639389 -2.367496,1.628843 -5.668179,0.893284 -7.2644099,-1.450868 -1.7567554,-2.579891 -0.9516401,-6.164234 1.6042049,-7.88943 2.792224,-1.884753 6.660359,-1.010041 8.514452,1.757542 2.012816,3.004508 1.068477,7.15654 -1.91088,9.139473 -1.814561,1.207694 -4.145511,1.472781 -6.194434,0.741058"
       transform="translate(23.75066,-5.8761093)" />
    <path
       sodipodi:type="spiral"
       style="fill:none;fill-rule:evenodd;stroke:#fdfe29;stroke-opacity:1"
       id="path15-0-9-7-5-9-5-8-2-1"
       sodipodi:cx="13.66355"
       sodipodi:cy="38.080822"
       sodipodi:expansion="1"
       sodipodi:revolution="3.8977971"
       sodipodi:radius="7.0949631"
       sodipodi:argument="-22.535967"
       sodipodi:t0="0"
       d="m 13.66355,38.080822 c -0.234153,0.141897 -0.306797,-0.245628 -0.235841,-0.389179 0.192285,-0.389015 0.735496,-0.325868 1.0142,-0.0825 0.498535,0.435321 0.377332,1.218416 -0.07083,1.639221 -0.6577,0.617549 -1.708519,0.432071 -2.264242,-0.22417 -0.740691,-0.874665 -0.48831,-2.201254 0.377507,-2.889263 1.089542,-0.865788 2.695266,-0.545345 3.514284,0.530845 0.991941,1.30341 0.602848,3.189999 -0.684182,4.139305 -1.516719,1.118724 -3.685182,0.660642 -4.764325,-0.837519 -1.2459141,-1.729686 -0.7186327,-4.180668 0.990856,-5.389347 1.942429,-1.373378 4.676363,-0.776759 6.014367,1.144193 1.501039,2.155019 0.834985,5.172214 -1.29753,6.639389 -2.367496,1.628843 -5.668179,0.893284 -7.2644099,-1.450868 -1.7567554,-2.579891 -0.9516401,-6.164234 1.6042049,-7.88943 2.792224,-1.884753 6.660359,-1.010041 8.514452,1.757542 2.012816,3.004508 1.068477,7.15654 -1.91088,9.139473 -1.814561,1.207694 -4.145511,1.472781 -6.194434,0.741058"
       transform="translate(33.869463,-3.0690978)" />
    <path
       sodipodi:type="spiral"
       style="fill:none;fill-rule:evenodd;stroke:#f9fb2c;stroke-opacity:1"
       id="path15-0-9-7-5-9-5-8-2-1-7"
       sodipodi:cx="13.66355"
       sodipodi:cy="38.080822"
       sodipodi:expansion="1"
       sodipodi:revolution="3.8977971"
       sodipodi:radius="7.0949631"
       sodipodi:argument="-22.535967"
       sodipodi:t0="0"
       d="m 13.66355,38.080822 c -0.234153,0.141897 -0.306797,-0.245628 -0.235841,-0.389179 0.192285,-0.389015 0.735496,-0.325868 1.0142,-0.0825 0.498535,0.435321 0.377332,1.218416 -0.07083,1.639221 -0.6577,0.617549 -1.708519,0.432071 -2.264242,-0.22417 -0.740691,-0.874665 -0.48831,-2.201254 0.377507,-2.889263 1.089542,-0.865788 2.695266,-0.545345 3.514284,0.530845 0.991941,1.30341 0.602848,3.189999 -0.684182,4.139305 -1.516719,1.118724 -3.685182,0.660642 -4.764325,-0.837519 -1.2459141,-1.729686 -0.7186327,-4.180668 0.990856,-5.389347 1.942429,-1.373378 4.676363,-0.776759 6.014367,1.144193 1.501039,2.155019 0.834985,5.172214 -1.29753,6.639389 -2.367496,1.628843 -5.668179,0.893284 -7.2644099,-1.450868 -1.7567554,-2.579891 -0.9516401,-6.164234 1.6042049,-7.88943 2.792224,-1.884753 6.660359,-1.010041 8.514452,1.757542 2.012816,3.004508 1.068477,7.15654 -1.91088,9.139473 -1.814561,1.207694 -4.145511,1.472781 -6.194434,0.741058"
       transform="translate(21.63458,1.6240747)" />
    <path
       sodipodi:type="spiral"
       style="fill:none;fill-rule:evenodd;stroke:#fdfe29;stroke-opacity:1"
       id="path15-0-9-7-5-9-5-8-2-1-7-9"
       sodipodi:cx="13.66355"
       sodipodi:cy="38.080822"
       sodipodi:expansion="1"
       sodipodi:revolution="3.8977971"
       sodipodi:radius="7.0949631"
       sodipodi:argument="-22.535967"
       sodipodi:t0="0"
       d="m 13.66355,38.080822 c -0.234153,0.141897 -0.306797,-0.245628 -0.235841,-0.389179 0.192285,-0.389015 0.735496,-0.325868 1.0142,-0.0825 0.498535,0.435321 0.377332,1.218416 -0.07083,1.639221 -0.6577,0.617549 -1.708519,0.432071 -2.264242,-0.22417 -0.740691,-0.874665 -0.48831,-2.201254 0.377507,-2.889263 1.089542,-0.865788 2.695266,-0.545345 3.514284,0.530845 0.991941,1.30341 0.602848,3.189999 -0.684182,4.139305 -1.516719,1.118724 -3.685182,0.660642 -4.764325,-0.837519 -1.2459141,-1.729686 -0.7186327,-4.180668 0.990856,-5.389347 1.942429,-1.373378 4.676363,-0.776759 6.014367,1.144193 1.501039,2.155019 0.834985,5.172214 -1.29753,6.639389 -2.367496,1.628843 -5.668179,0.893284 -7.2644099,-1.450868 -1.7567554,-2.579891 -0.9516401,-6.164234 1.6042049,-7.88943 2.792224,-1.884753 6.660359,-1.010041 8.514452,1.757542 2.012816,3.004508 1.068477,7.15654 -1.91088,9.139473 -1.814561,1.207694 -4.145511,1.472781 -6.194434,0.741058"
       transform="translate(19.986962,10.170449)" />
    <path
       sodipodi:type="spiral"
       style="fill:none;fill-rule:evenodd;stroke:#fdfe29;stroke-opacity:1"
       id="path15-0-9-7-5-9-5-8-2-1-7-9-5"
       sodipodi:cx="13.66355"
       sodipodi:cy="38.080822"
       sodipodi:expansion="1"
       sodipodi:revolution="3.8977971"
       sodipodi:radius="7.0949631"
       sodipodi:argument="-22.535967"
       sodipodi:t0="0"
       d="m 13.66355,38.080822 c -0.234153,0.141897 -0.306797,-0.245628 -0.235841,-0.389179 0.192285,-0.389015 0.735496,-0.325868 1.0142,-0.0825 0.498535,0.435321 0.377332,1.218416 -0.07083,1.639221 -0.6577,0.617549 -1.708519,0.432071 -2.264242,-0.22417 -0.740691,-0.874665 -0.48831,-2.201254 0.377507,-2.889263 1.089542,-0.865788 2.695266,-0.545345 3.514284,0.530845 0.991941,1.30341 0.602848,3.189999 -0.684182,4.139305 -1.516719,1.118724 -3.685182,0.660642 -4.764325,-0.837519 -1.2459141,-1.729686 -0.7186327,-4.180668 0.990856,-5.389347 1.942429,-1.373378 4.676363,-0.776759 6.014367,1.144193 1.501039,2.155019 0.834985,5.172214 -1.29753,6.639389 -2.367496,1.628843 -5.668179,0.893284 -7.2644099,-1.450868 -1.7567554,-2.579891 -0.9516401,-6.164234 1.6042049,-7.88943 2.792224,-1.884753 6.660359,-1.010041 8.514452,1.757542 2.012816,3.004508 1.068477,7.15654 -1.91088,9.139473 -1.814561,1.207694 -4.145511,1.472781 -6.194434,0.741058"
       transform="translate(29.072888,6.1353047)" />
  </g>
</svg>
